<svg width="277" height="277" viewBox="0 0 277 277" fill="none" xmlns="http://www.w3.org/2000/svg">
<g clip-path="url(#clip0_7301_13740)">
<rect width="277" height="277" transform="translate(0 -0.00976562)" fill="#F72055"/>
<rect x="89.0793" y="52.4617" width="96.5435" height="96.5435" rx="24.1359" fill="white"/>
<path d="M150.775 96.2003L167.935 113.38C170.454 115.903 174.545 115.903 177.077 113.38C179.597 110.857 179.597 106.761 177.077 104.227L159.906 87.0473C158.593 85.733 156.976 85.1462 155.381 85.1462C152.064 85.1462 148.876 87.7279 148.876 91.6238C148.888 93.337 149.568 94.9799 150.775 96.2003Z" fill="url(#paint0_linear_7301_13740)"/>
<path fill-rule="evenodd" clip-rule="evenodd" d="M125.487 87.0363L130.047 91.6011L130.041 91.6074L135.823 97.3968C137.066 98.6407 139.07 98.6407 140.312 97.3968L150.662 87.0351C151.881 85.8264 153.522 85.1458 155.233 85.1458C160.988 85.1458 163.871 92.1162 159.804 96.1881L144.286 111.701C140.851 115.151 135.272 115.151 131.826 111.701L120.9 100.762L108.305 113.381C105.773 115.904 101.682 115.904 99.1624 113.381C96.6425 110.846 96.6425 106.751 99.1624 104.228L116.31 87.0597C116.474 86.8837 116.65 86.7312 116.826 86.5904C116.826 86.5786 116.837 86.5786 116.837 86.5786C116.908 86.516 116.978 86.4639 117.048 86.4117C117.084 86.3857 117.119 86.3596 117.154 86.3322C117.177 86.3087 117.213 86.2853 117.248 86.2618C118.361 85.4873 119.604 85.1353 120.834 85.1353C120.963 85.1353 121.08 85.1353 121.209 85.147C122.815 85.2174 124.351 85.898 125.487 87.0363Z" fill="#F72055"/>
<path d="M155.005 85.1479C153.341 85.2066 151.77 85.9342 150.598 87.1076L140.331 97.3872C139.088 98.6311 137.084 98.6311 135.842 97.3872C132.642 94.1836 127.461 94.1836 124.261 97.3872L120.909 100.743L131.845 111.692C135.291 115.142 140.87 115.142 144.304 111.692L159.811 96.1903C163.936 92.0597 160.912 84.9602 155.005 85.1479Z" fill="url(#paint1_linear_7301_13740)"/>
<path d="M72.487 204.106L72.4412 184.875L63.0087 200.718H59.666L50.2793 185.287V204.106H43.3194V172.054H49.4551L61.4518 191.972L73.2654 172.054H79.3553L79.4469 204.106H72.487ZM108.16 197.238H93.2787L90.4398 204.106H82.8389L97.125 172.054H104.451L118.783 204.106H110.999L108.16 197.238ZM105.825 191.606L100.742 179.335L95.6598 191.606H105.825ZM122.109 172.054H129.526V198.062H145.598V204.106H122.109V172.054ZM149.743 172.054H157.161V204.106H149.743V172.054ZM194.164 172.054V204.106H188.074L172.094 184.646V204.106H164.767V172.054H170.903L186.838 191.515V172.054H194.164ZM222.856 197.238H207.975L205.136 204.106H197.535L211.821 172.054H219.147L233.479 204.106H225.695L222.856 197.238ZM220.521 191.606L215.438 179.335L210.356 191.606H220.521Z" fill="white"/>
</g>
<defs>
<linearGradient id="paint0_linear_7301_13740" x1="174.599" y1="88.8423" x2="150.045" y2="96.1854" gradientUnits="userSpaceOnUse">
<stop stop-color="#F72055"/>
<stop offset="1" stop-color="#C20131"/>
</linearGradient>
<linearGradient id="paint1_linear_7301_13740" x1="155.791" y1="88.7188" x2="124.941" y2="101.656" gradientUnits="userSpaceOnUse">
<stop stop-color="#F72055"/>
<stop offset="1" stop-color="#C20131"/>
</linearGradient>
<clipPath id="clip0_7301_13740">
<rect width="277" height="277" fill="white" transform="translate(0 -0.00976562)"/>
</clipPath>
</defs>
</svg>
